<svg width="23" height="23" viewBox="0 0 23 23" fill="none" xmlns="http://www.w3.org/2000/svg">
<path d="M10.125 16.875H12.375V10.125H10.125V16.875ZM11.25 7.875C11.5688 7.875 11.8361 7.767 12.0521 7.551C12.2681 7.335 12.3758 7.068 12.375 6.75C12.375 6.43125 12.267 6.16388 12.051 5.94788C11.835 5.73188 11.568 5.62425 11.25 5.625C10.9313 5.625 10.6639 5.733 10.4479 5.949C10.2319 6.165 10.1243 6.432 10.125 6.75C10.125 7.06875 10.233 7.33613 10.449 7.55213C10.665 7.76813 10.932 7.87575 11.25 7.875ZM11.25 22.5C9.69375 22.5 8.23125 22.2045 6.8625 21.6135C5.49375 21.0225 4.30313 20.2211 3.29063 19.2094C2.27813 18.1969 1.47675 17.0063 0.8865 15.6375C0.29625 14.2688 0.00075 12.8063 0 11.25C0 9.69375 0.2955 8.23125 0.8865 6.8625C1.4775 5.49375 2.27888 4.30313 3.29063 3.29063C4.30313 2.27813 5.49375 1.47675 6.8625 0.8865C8.23125 0.29625 9.69375 0.00075 11.25 0C12.8063 0 14.2688 0.2955 15.6375 0.8865C17.0063 1.4775 18.1969 2.27888 19.2094 3.29063C20.2219 4.30313 21.0236 5.49375 21.6146 6.8625C22.2056 8.23125 22.5008 9.69375 22.5 11.25C22.5 12.8063 22.2045 14.2688 21.6135 15.6375C21.0225 17.0063 20.2211 18.1969 19.2094 19.2094C18.1969 20.2219 17.0063 21.0236 15.6375 21.6146C14.2688 22.2056 12.8063 22.5008 11.25 22.5ZM11.25 20.25C13.7625 20.25 15.8906 19.3781 17.6344 17.6344C19.3781 15.8906 20.25 13.7625 20.25 11.25C20.25 8.7375 19.3781 6.60938 17.6344 4.86563C15.8906 3.12188 13.7625 2.25 11.25 2.25C8.7375 2.25 6.60938 3.12188 4.86563 4.86563C3.12188 6.60938 2.25 8.7375 2.25 11.25C2.25 13.7625 3.12188 15.8906 4.86563 17.6344C6.60938 19.3781 8.7375 20.25 11.25 20.25Z" fill="white"/>
</svg>
