<svg width="23" height="23" viewBox="0 0 23 23" fill="none" xmlns="http://www.w3.org/2000/svg">
<path d="M10.375 17.125H12.625V10.375H10.375V17.125ZM11.5 8.125C11.8188 8.125 12.0861 8.017 12.3021 7.801C12.5181 7.585 12.6258 7.318 12.625 7C12.625 6.68125 12.517 6.41388 12.301 6.19788C12.085 5.98188 11.818 5.87425 11.5 5.875C11.1813 5.875 10.9139 5.983 10.6979 6.199C10.4819 6.415 10.3743 6.682 10.375 7C10.375 7.31875 10.483 7.58613 10.699 7.80213C10.915 8.01813 11.182 8.12575 11.5 8.125ZM11.5 22.75C9.94375 22.75 8.48125 22.4545 7.1125 21.8635C5.74375 21.2725 4.55313 20.4711 3.54063 19.4594C2.52813 18.4469 1.72675 17.2563 1.1365 15.8875C0.54625 14.5188 0.25075 13.0563 0.25 11.5C0.25 9.94375 0.5455 8.48125 1.1365 7.1125C1.7275 5.74375 2.52888 4.55313 3.54063 3.54063C4.55313 2.52813 5.74375 1.72675 7.1125 1.1365C8.48125 0.54625 9.94375 0.25075 11.5 0.25C13.0563 0.25 14.5188 0.5455 15.8875 1.1365C17.2563 1.7275 18.4469 2.52888 19.4594 3.54063C20.4719 4.55313 21.2736 5.74375 21.8646 7.1125C22.4556 8.48125 22.7508 9.94375 22.75 11.5C22.75 13.0563 22.4545 14.5188 21.8635 15.8875C21.2725 17.2563 20.4711 18.4469 19.4594 19.4594C18.4469 20.4719 17.2563 21.2736 15.8875 21.8646C14.5188 22.4556 13.0563 22.7508 11.5 22.75ZM11.5 20.5C14.0125 20.5 16.1406 19.6281 17.8844 17.8844C19.6281 16.1406 20.5 14.0125 20.5 11.5C20.5 8.9875 19.6281 6.85938 17.8844 5.11563C16.1406 3.37188 14.0125 2.5 11.5 2.5C8.9875 2.5 6.85938 3.37188 5.11563 5.11563C3.37188 6.85938 2.5 8.9875 2.5 11.5C2.5 14.0125 3.37188 16.1406 5.11563 17.8844C6.85938 19.6281 8.9875 20.5 11.5 20.5Z" fill="white"/>
</svg>
